<svg xmlns="http://www.w3.org/2000/svg" viewBox="0 0 512 512" width="512" height="512">
  <defs>
    <linearGradient id="bg" x1="0" y1="0" x2="1" y2="1">
      <stop offset="0" stop-color="#6d5dfc"/>
      <stop offset="0.55" stop-color="#8b5cf6"/>
      <stop offset="1" stop-color="#ff7ec6"/>
    </linearGradient>
  </defs>
  <rect width="512" height="512" rx="112" fill="url(#bg)"/>
  <!-- white keys -->
  <g>
    <rect x="120" y="150" width="64" height="240" rx="14" fill="#ffffff"/>
    <rect x="192" y="150" width="64" height="240" rx="14" fill="#ff6b6b"/>
    <rect x="264" y="150" width="64" height="240" rx="14" fill="#ffffff"/>
    <rect x="336" y="150" width="64" height="240" rx="14" fill="#4ecdc4"/>
  </g>
  <!-- black keys -->
  <g fill="#1a1330">
    <rect x="168" y="150" width="34" height="150" rx="8"/>
    <rect x="244" y="150" width="34" height="150" rx="8"/>
    <rect x="320" y="150" width="34" height="150" rx="8"/>
  </g>
  <!-- music note -->
  <g fill="#ffe66d">
    <circle cx="300" cy="118" r="30"/>
    <rect x="324" y="34" width="14" height="92" rx="7"/>
    <path d="M324 34 q44 8 44 44 q-18 -28 -44 -22 z"/>
  </g>
</svg>
